<svg width="22" height="18" viewBox="0 0 22 18" fill="none" xmlns="http://www.w3.org/2000/svg">
<path d="M11 18L7.79998 15.15C6.59998 14.0667 5.57081 13.1 4.71248 12.25C3.85414 11.4 3.14581 10.6 2.58748 9.85C2.02914 9.1 1.62081 8.375 1.36248 7.675C1.10414 6.975 0.974976 6.24167 0.974976 5.475C0.974976 3.90833 1.49998 2.60417 2.54998 1.5625C3.59998 0.520833 4.90831 0 6.47498 0C7.34164 0 8.16664 0.183333 8.94998 0.55C9.73331 0.916667 10.4166 1.43333 11 2.1C11.5833 1.43333 12.2666 0.916667 13.05 0.55C13.8333 0.183333 14.6583 0 15.525 0C17.0916 0 18.4 0.520833 19.45 1.5625C20.5 2.60417 21.025 3.90833 21.025 5.475C21.025 6.24167 20.8958 6.975 20.6375 7.675C20.3791 8.375 19.9708 9.1 19.4125 9.85C18.8541 10.6 18.1458 11.4 17.2875 12.25C16.4291 13.1 15.4 14.0667 14.2 15.15L11 18ZM5.82498 10.5H16.175C16.4416 10.2167 16.6833 9.95417 16.9 9.7125C17.1166 9.47083 17.3166 9.23333 17.5 9H4.49998C4.68331 9.23333 4.88331 9.47083 5.09998 9.7125C5.31664 9.95417 5.55831 10.2167 5.82498 10.5ZM11 15.3C11.6 14.7667 12.1625 14.2708 12.6875 13.8125C13.2125 13.3542 13.6916 12.9167 14.125 12.5H7.87498C8.30831 12.9167 8.78748 13.3542 9.31248 13.8125C9.83748 14.2708 10.4 14.7667 11 15.3Z" fill="#939BA7"/>
</svg>
