<svg width="20" height="20" viewBox="0 0 20 20" fill="none" xmlns="http://www.w3.org/2000/svg">
<path fill-rule="evenodd" clip-rule="evenodd" d="M8.53586 11.4645C8.29179 11.2204 7.89606 11.2204 7.65198 11.4645L2.53174 16.5847L2.53174 13.125C2.53174 12.7798 2.25192 12.5 1.90674 12.5C1.56156 12.5 1.28174 12.7798 1.28174 13.125L1.28174 18.0936C1.28174 18.4388 1.56156 18.7186 1.90674 18.7186L6.87528 18.7186C7.22046 18.7186 7.50028 18.4388 7.50028 18.0936C7.50028 17.7484 7.22046 17.4686 6.87528 17.4686L3.41562 17.4686L8.53586 12.3484C8.77994 12.1043 8.77994 11.7086 8.53586 11.4645Z" fill="#00143F"/>
<path fill-rule="evenodd" clip-rule="evenodd" d="M11.4648 8.53556C11.7089 8.77964 12.1046 8.77964 12.3487 8.53556L17.4689 3.41532L17.4689 6.87503C17.4689 7.22021 17.7487 7.50004 18.0939 7.50004C18.4391 7.50004 18.7189 7.22021 18.7189 6.87503V1.90643C18.7189 1.56126 18.4391 1.28143 18.0939 1.28143L13.1254 1.28144C12.7802 1.28144 12.5004 1.56126 12.5004 1.90644C12.5004 2.25162 12.7802 2.53144 13.1254 2.53144L16.585 2.53143L11.4648 7.65168C11.2207 7.89575 11.2207 8.29148 11.4648 8.53556Z" fill="#00143F"/>
</svg>
