<svg width="124" height="38" viewBox="0 0 124 38" fill="none" xmlns="http://www.w3.org/2000/svg">
<path d="M51.4531 12.9915H54.498V24.547C54.498 26.4248 53.8814 27.857 52.6491 28.8439C51.4168 29.8308 49.9298 30.3248 48.1901 30.3248C46.8851 30.3248 45.7364 30.0738 44.746 29.572C43.7547 29.0701 42.9934 28.3342 42.4615 27.3633L45.1208 25.8342C45.7325 26.9662 46.7878 27.5332 48.2866 27.5332C49.2691 27.5332 50.0431 27.2743 50.6066 26.7567C51.1711 26.2382 51.4533 25.5021 51.4533 24.547V23.2362C50.5346 24.466 49.2454 25.0814 47.5853 25.0814C45.9252 25.0814 44.447 24.4788 43.2954 23.2728C42.1437 22.0678 41.5675 20.5988 41.5675 18.8662C41.5675 17.1336 42.1477 15.6864 43.3072 14.4724C44.4677 13.2583 45.8938 12.6517 47.5853 12.6517C49.2768 12.6517 50.5346 13.2671 51.4533 14.4969V12.9915H51.4531ZM45.6398 21.2575C46.276 21.8808 47.0855 22.192 48.069 22.192C49.0525 22.192 49.8609 21.881 50.4982 21.2575C51.1344 20.6352 51.4531 19.837 51.4531 18.866C51.4531 17.8951 51.1344 17.1226 50.4982 16.4993C49.8609 15.877 49.0516 15.5648 48.069 15.5648C47.0864 15.5648 46.2762 15.877 45.6398 16.4993C45.0036 17.1226 44.6849 17.9118 44.6849 18.866C44.6849 19.8203 45.0036 20.6352 45.6398 21.2575Z" fill="black"/>
<path d="M58.7515 20.3478C59.1706 21.869 60.3064 22.6297 62.1592 22.6297C63.3511 22.6297 64.254 22.2247 64.8657 21.4156L67.3794 22.8716C66.1875 24.6042 64.431 25.4696 62.1109 25.4696C60.1126 25.4696 58.5095 24.8631 57.3008 23.649C56.092 22.435 55.4882 20.9059 55.4882 19.0607C55.4882 17.2155 56.0842 15.7071 57.277 14.4842C58.4689 13.2632 59.9993 12.6517 61.8689 12.6517C63.6411 12.6517 65.1035 13.2671 66.2561 14.4969C67.4078 15.7268 67.9841 17.248 67.9841 19.0607C67.9841 19.4656 67.9437 19.8944 67.8631 20.3478H58.7513H58.7515ZM58.7033 17.9197H64.8657C64.6887 17.0938 64.3228 16.4794 63.7662 16.0745C63.2105 15.6705 62.5782 15.4679 61.8691 15.4679C61.0312 15.4679 60.3378 15.6823 59.7911 16.1109C59.2423 16.5396 58.8805 17.1421 58.7033 17.9195V17.9197Z" fill="black"/>
<path d="M75.67 12.6517C76.9908 12.6517 78.0824 13.0972 78.9449 13.9873C79.8064 14.8773 80.2381 16.1071 80.2381 17.6767V25.1299H77.1205V18.065C77.1205 17.256 76.9022 16.6376 76.4675 16.2079C76.0328 15.7791 75.4526 15.5649 74.7278 15.5649C73.9213 15.5649 73.2772 15.8159 72.7943 16.3178C72.3104 16.8196 72.0685 17.5724 72.0685 18.5748V25.13H68.9509V12.9915H72.0685V14.3507C72.8258 13.2187 74.0265 12.6517 75.67 12.6517Z" fill="black"/>
<path d="M84.3235 20.3478C84.7426 21.869 85.8784 22.6297 87.7312 22.6297C88.9231 22.6297 89.826 22.2247 90.4378 21.4156L92.9514 22.8716C91.7596 24.6042 90.003 25.4696 87.683 25.4696C85.6846 25.4696 84.0815 24.8631 82.8728 23.649C81.6641 22.435 81.0602 20.9059 81.0602 19.0607C81.0602 17.2155 81.6562 15.7071 82.849 14.4842C84.0409 13.2632 85.5713 12.6517 87.4409 12.6517C89.2132 12.6517 90.6755 13.2671 91.8281 14.4969C92.9799 15.7268 93.5561 17.248 93.5561 19.0607C93.5561 19.4656 93.5157 19.8944 93.4352 20.3478H84.3235ZM84.2753 17.9197H90.4378C90.2608 17.0938 89.8948 16.4794 89.3382 16.0745C88.7825 15.6705 88.1502 15.4679 87.4411 15.4679C86.6032 15.4679 85.9098 15.6823 85.3631 16.1109C84.8143 16.5396 84.4525 17.1423 84.2753 17.9197Z" fill="black"/>
<path d="M101.072 16.0014H98.3409V21.0512C98.3409 21.4721 98.4452 21.7802 98.6547 21.9739C98.8643 22.1686 99.17 22.2771 99.5734 22.3019C99.9756 22.3255 100.475 22.3225 101.072 22.29V25.13C98.9291 25.373 97.4186 25.1706 96.5403 24.5235C95.662 23.8754 95.2224 22.7188 95.2224 21.0514V16.0016H93.1198V12.9917H95.2224V10.5399L98.3409 9.59265V12.9917H101.072V16.0016V16.0014Z" fill="black"/>
<path d="M103.61 11.5346C103.094 11.5346 102.647 11.345 102.269 10.9647C101.89 10.5843 101.7 10.1349 101.7 9.61731C101.7 9.09973 101.89 8.64636 102.269 8.25813C102.647 7.86897 103.094 7.67542 103.61 7.67542C104.126 7.67542 104.597 7.86897 104.975 8.25813C105.354 8.64636 105.544 9.09973 105.544 9.61731C105.544 10.1349 105.354 10.5843 104.975 10.9647C104.597 11.345 104.142 11.5346 103.61 11.5346Z" fill="#0974FB"/>
<path d="M105.181 12.9916H102.063V25.1299H105.181V12.9916Z" fill="black"/>
<path d="M123.767 16.6328C123.767 18.8336 123.075 20.7421 121.691 22.3592L123.429 24.1837L121.06 26.2957L119.222 24.3655C117.917 25.1023 116.5 25.4699 114.969 25.4699C112.536 25.4699 110.466 24.6165 108.758 22.9085C107.049 21.2016 106.196 19.1094 106.196 16.6328C106.196 14.1563 107.049 12.0651 108.758 10.3583C110.466 8.6503 112.536 7.79688 114.969 7.79688C117.402 7.79688 119.477 8.6503 121.193 10.3583C122.909 12.0651 123.767 14.1574 123.767 16.6328H123.767ZM114.978 22.1923C115.606 22.1923 116.236 22.0926 116.866 21.8931L114.075 18.9643L116.444 16.8523L119.402 19.956C120.088 18.986 120.432 17.8786 120.432 16.633C120.432 15.015 119.908 13.6804 118.861 12.6274C117.814 11.5763 116.517 11.0499 114.969 11.0499C113.422 11.0499 112.125 11.5765 111.078 12.6274C110.031 13.6804 109.507 15.015 109.507 16.633C109.507 18.2511 110.032 19.5629 111.081 20.615C112.129 21.667 113.428 22.1925 114.978 22.1925L114.978 22.1923Z" fill="black"/>
<path d="M17.1548 13.3491C16.6971 13.4734 16.2616 13.6523 15.856 13.8785C15.7514 13.7912 15.6676 13.6758 15.6177 13.538L13.262 7.0372C13.1119 6.62288 13.3246 6.16482 13.7371 6.01407C13.8268 5.98121 13.9186 5.96582 14.0087 5.96582C14.3333 5.96582 14.6382 6.16707 14.7555 6.49109L17.1113 12.9918C17.1541 13.1101 17.1674 13.232 17.1548 13.3491Z" fill="#FF7BD2"/>
<path d="M13.0194 1.69955C12.8693 1.28529 12.4133 1.07169 12.0008 1.22247C11.5884 1.37325 11.3757 1.83131 11.5258 2.24558L12.474 4.86209C12.6241 5.27635 13.0801 5.48995 13.4926 5.33917C13.905 5.18839 14.1177 4.73033 13.9676 4.31606L13.0194 1.69955Z" fill="#FF7BD2"/>
<path d="M13.0449 17.5013C12.9275 17.9473 12.8614 18.4142 12.8532 18.8954C12.7251 18.943 12.5833 18.9582 12.4392 18.9327L5.65619 17.7314C5.22407 17.6548 4.93548 17.2409 5.01156 16.8067C5.07959 16.4196 5.4149 16.147 5.79338 16.147C5.83917 16.147 5.88552 16.1509 5.93225 16.1592L12.7152 17.3605C12.8386 17.3822 12.9502 17.4316 13.0449 17.5013Z" fill="#FF7BD2"/>
<path d="M0.932796 15.2737C0.500552 15.1971 0.0883634 15.487 0.0121472 15.9212C-0.064069 16.3553 0.224549 16.7693 0.656792 16.8459L3.38685 17.3294C3.8191 17.406 4.23128 17.1161 4.3075 16.6819C4.38372 16.2477 4.0951 15.8337 3.66285 15.7572L0.932796 15.2737Z" fill="#FF7BD2"/>
<path d="M15.6759 24.0172C15.6529 24.152 15.5952 24.2825 15.5013 24.395L11.0741 29.6944C10.7921 30.0322 10.2908 30.0763 9.95456 29.7928C9.76728 29.6349 9.67065 29.4087 9.67065 29.181C9.67065 28.9998 9.73159 28.8179 9.85662 28.6683L14.2838 23.3688C14.3648 23.2719 14.4636 23.1993 14.5715 23.1516C14.9027 23.4826 15.2735 23.7736 15.6759 24.0172Z" fill="#FF7BD2"/>
<path d="M6.59355 32.5741C6.31142 32.9118 6.35528 33.4153 6.6915 33.6987C7.02773 33.9821 7.529 33.938 7.81113 33.6003L9.59305 31.4673C9.87518 31.1296 9.83132 30.6261 9.49509 30.3427C9.15887 30.0594 8.65759 30.1034 8.37547 30.4411L6.59355 32.5741Z" fill="#FF7BD2"/>
<path d="M23.6228 31.9863C23.5331 32.0191 23.4413 32.0345 23.3512 32.0345C23.0266 32.0345 22.7217 31.8333 22.6044 31.5092L20.2486 25.0085C20.2058 24.8902 20.1925 24.7684 20.2051 24.6512C20.6628 24.5269 21.0983 24.348 21.5039 24.1218C21.6085 24.2091 21.6923 24.3246 21.7422 24.4624L24.0979 30.9631C24.248 31.3775 24.0353 31.8355 23.6228 31.9863Z" fill="#FF7BD2"/>
<path d="M24.3406 36.3007C24.4907 36.715 24.9467 36.9286 25.3592 36.7778C25.7716 36.627 25.9843 36.1689 25.8341 35.7547L24.886 33.1382C24.7359 32.7239 24.2798 32.5103 23.8674 32.6611C23.455 32.8119 23.2423 33.2699 23.3924 33.6842L24.3406 36.3007Z" fill="#FF7BD2"/>
<path d="M32.3481 21.1935C32.2803 21.5806 31.9448 21.8532 31.5665 21.8532C31.5207 21.8532 31.4743 21.8492 31.4276 21.841L24.6446 20.6397C24.5213 20.6179 24.4097 20.5685 24.3149 20.4989C24.4323 20.0528 24.4985 19.586 24.5067 19.1048C24.6347 19.0571 24.7766 19.0419 24.9207 19.0674L31.7035 20.2687C32.1358 20.3453 32.4244 20.7593 32.3481 21.1935Z" fill="#FF7BD2"/>
<path d="M36.4271 22.7263C36.8593 22.8029 37.2715 22.513 37.3477 22.0788C37.4239 21.6447 37.1353 21.2307 36.7031 21.1541L33.973 20.6706C33.5408 20.594 33.1286 20.8839 33.0524 21.3181C32.9761 21.7523 33.2648 22.1663 33.697 22.2428L36.4271 22.7263Z" fill="#FF7BD2"/>
<path d="M27.6891 8.81927C27.6891 9.00043 27.6282 9.18234 27.5031 9.33196L23.0759 14.6314C22.995 14.7283 22.8961 14.801 22.7883 14.8486C22.4571 14.5177 22.0862 14.2267 21.6838 13.983C21.7068 13.8482 21.7646 13.7177 21.8584 13.6053L26.2856 8.30582C26.5677 7.9681 27.0689 7.92398 27.4052 8.20745C27.5925 8.36534 27.6891 8.59155 27.6891 8.81927Z" fill="#FF7BD2"/>
<path d="M30.7663 5.42576C31.0484 5.08805 31.0046 4.58455 30.6684 4.30118C30.3321 4.01781 29.8309 4.06186 29.5487 4.39957L27.7668 6.53257C27.4847 6.87028 27.5285 7.37377 27.8648 7.65714C28.201 7.94052 28.7023 7.89647 28.9844 7.55875L30.7663 5.42576Z" fill="#FF7BD2"/>
<path d="M15.3228 14.2147C14.9396 14.4862 14.5905 14.8033 14.2834 15.1577C14.155 15.1115 14.0365 15.0317 13.9425 14.9191L12.6609 13.3852C12.3786 13.0474 12.4226 12.5439 12.7588 12.2605C12.9078 12.1351 13.0889 12.0739 13.2692 12.0739C13.4959 12.0739 13.7212 12.1707 13.8784 12.3588L15.16 13.893C15.2407 13.9896 15.2947 14.1 15.3228 14.2147Z" fill="#12B6FF"/>
<path d="M7.46975 4.68747C7.18762 4.34975 6.68635 4.3057 6.35012 4.58908C6.0139 4.87245 5.97004 5.37594 6.25217 5.71366L11.214 11.653C11.4961 11.9907 11.9974 12.0348 12.3336 11.7514C12.6698 11.468 12.7137 10.9646 12.4315 10.6268L7.46975 4.68747Z" fill="#12B6FF"/>
<path d="M13.1675 20.9045C13.0637 20.9927 12.9361 21.0552 12.7925 21.0808L10.8291 21.4284C10.3968 21.505 9.98465 21.2152 9.90839 20.781C9.90017 20.734 9.89624 20.6873 9.89624 20.6413C9.89624 20.2611 10.1674 19.9245 10.553 19.8562L12.5165 19.5085C12.6402 19.4865 12.7624 19.4946 12.8755 19.5278C12.9177 20.0056 13.0174 20.4669 13.1675 20.9045Z" fill="#12B6FF"/>
<path d="M8.33609 20.2486L0.734184 21.5949C0.301941 21.6715 0.0133232 22.0855 0.0895394 22.5196C0.165756 22.9538 0.577944 23.2437 1.01019 23.1671L8.61209 21.8208C9.04433 21.7442 9.33295 21.3302 9.25674 20.8961C9.18052 20.4619 8.76833 20.172 8.33609 20.2486Z" fill="#12B6FF"/>
<path d="M17.53 25.1614L16.8482 27.0432C16.6981 27.4575 16.242 27.6712 15.8295 27.5204C15.5068 27.4023 15.3064 27.0962 15.3064 26.7703C15.3064 26.6796 15.3219 26.5874 15.3546 26.4973L16.0364 24.6155C16.0792 24.4972 16.1469 24.3953 16.2316 24.3136C16.6516 24.5092 17.0986 24.656 17.5655 24.7467C17.5896 24.8811 17.5799 25.0238 17.53 25.1614Z" fill="#12B6FF"/>
<path d="M14.5847 28.6218L11.9445 35.9075C11.7944 36.3218 12.0071 36.7798 12.4195 36.9306C12.832 37.0814 13.288 36.8678 13.4381 36.4535L16.0782 29.1678C16.2284 28.7535 16.0157 28.2955 15.6033 28.1447C15.1908 27.9939 14.7348 28.2075 14.5847 28.6218Z" fill="#12B6FF"/>
<path d="M24.6011 25.7397C24.4521 25.8651 24.271 25.9263 24.0906 25.9263C23.8639 25.9263 23.6387 25.8294 23.4815 25.6413L22.1999 24.1072C22.1192 24.0105 22.0651 23.9001 22.0371 23.7854C22.4203 23.5139 22.7694 23.1968 23.0765 22.8424C23.2049 22.8886 23.3234 22.9684 23.4174 23.081L24.699 24.615C24.9812 24.9527 24.9373 25.4562 24.6011 25.7397Z" fill="#12B6FF"/>
<path d="M26.1461 26.3469C25.864 26.0092 25.3627 25.9651 25.0265 26.2485C24.6903 26.5319 24.6464 27.0354 24.9286 27.3731L29.8904 33.3125C30.1725 33.6502 30.6738 33.6942 31.01 33.4108C31.3462 33.1275 31.3901 32.624 31.1079 32.2863L26.1461 26.3469Z" fill="#12B6FF"/>
<path d="M27.4635 17.3589C27.4635 17.739 27.1923 18.0756 26.8067 18.144L24.8432 18.4917C24.7195 18.5136 24.5973 18.5055 24.4842 18.4723C24.442 17.9945 24.3423 17.5333 24.1923 17.0957C24.296 17.0074 24.4237 16.9449 24.5672 16.9194L26.5306 16.5717C26.9629 16.4951 27.3751 16.785 27.4513 17.2192C27.4595 17.2661 27.4635 17.3129 27.4635 17.3589Z" fill="#12B6FF"/>
<path d="M36.3496 14.8328L28.7477 16.1791C28.3155 16.2557 28.0269 16.6697 28.1031 17.1039C28.1793 17.538 28.5915 17.8279 29.0237 17.7513L36.6256 16.405C37.0579 16.3284 37.3465 15.9144 37.2703 15.4803C37.1941 15.0461 36.7819 14.7562 36.3496 14.8328Z" fill="#12B6FF"/>
<path d="M22.0533 11.2299C22.0533 11.3206 22.0378 11.4128 22.0051 11.5029L21.3233 13.3847C21.2805 13.503 21.2128 13.6049 21.1281 13.6866C20.7082 13.4909 20.2611 13.3441 19.7942 13.2535C19.7699 13.119 19.7798 12.9764 19.8297 12.8388L20.5115 10.9569C20.6616 10.5426 21.1177 10.329 21.5302 10.4797C21.8529 10.5978 22.0533 10.9038 22.0533 11.2299Z" fill="#12B6FF"/>
<path d="M23.9216 1.54634L21.2815 8.83206C21.1313 9.24633 21.344 9.70438 21.7564 9.85517C22.1689 10.0059 22.6249 9.79235 22.775 9.37808L25.4152 2.09236C25.5653 1.6781 25.3526 1.22004 24.9402 1.06926C24.5277 0.918477 24.0717 1.13207 23.9216 1.54634Z" fill="#12B6FF"/>
<path d="M19.2517 7.48293V12.8152C19.2517 12.9416 19.2225 13.061 19.1706 13.1671C19.0089 13.1533 18.8452 13.1464 18.6799 13.1464C18.3704 13.1464 18.0667 13.1706 17.7703 13.2174C17.7017 13.0993 17.6622 12.9619 17.6622 12.8152V7.48293C17.6622 7.04213 18.0181 6.68469 18.457 6.68469C18.6766 6.68469 18.8751 6.77405 19.019 6.91861C19.1627 7.06297 19.2517 7.26253 19.2517 7.48293Z" fill="#0974FB"/>
<path d="M19.2519 0.798233C19.2519 0.357381 18.8961 0 18.4572 0C18.0183 0 17.6625 0.357381 17.6625 0.798233V5.18101C17.6625 5.62186 18.0183 5.97924 18.4572 5.97924C18.8961 5.97924 19.2519 5.62186 19.2519 5.18101V0.798233Z" fill="#0974FB"/>
<path d="M13.8956 15.6566C13.6294 16.0401 13.4078 16.4571 13.2383 16.8999C13.1024 16.9005 12.9644 16.8661 12.8383 16.7929L8.24079 14.1268C7.86081 13.9064 7.73054 13.4181 7.94996 13.0364C8.16939 12.6546 8.65553 12.5237 9.03551 12.7441L13.633 15.4103C13.7418 15.4734 13.83 15.5584 13.8956 15.6566Z" fill="#0974FB"/>
<path d="M3.27191 9.40167C2.8918 9.18124 2.40576 9.31205 2.1863 9.69384C1.96684 10.0756 2.09708 10.5638 2.47719 10.7842L6.25608 12.9756C6.63618 13.1961 7.12223 13.0653 7.34168 12.6835C7.56114 12.3017 7.4309 11.8135 7.0508 11.5931L3.27191 9.40167Z" fill="#0974FB"/>
<path d="M14.1491 22.6819C14.0816 22.8011 13.9828 22.9042 13.856 22.9778L9.25855 25.6437C8.87839 25.8643 8.39243 25.7335 8.17301 25.3516C8.10067 25.2258 8.06628 25.0886 8.06628 24.9531C8.06628 24.6773 8.20889 24.409 8.46383 24.2613L13.0613 21.5951C13.1699 21.532 13.2871 21.4979 13.4041 21.49C13.6047 21.9182 13.8555 22.3181 14.1491 22.6819Z" fill="#0974FB"/>
<path d="M6.4791 25.4122L2.70021 27.6036C2.3201 27.824 2.18987 28.3122 2.40932 28.694C2.62878 29.0758 3.11482 29.2066 3.49493 28.9861L7.27382 26.7948C7.65393 26.5743 7.78416 26.0861 7.5647 25.7044C7.34525 25.3226 6.85921 25.1918 6.4791 25.4122Z" fill="#0974FB"/>
<path d="M19.6976 25.185V30.5173C19.6976 30.9581 19.3417 31.3155 18.9029 31.3155C18.6833 31.3155 18.4848 31.2261 18.3409 31.0816C18.1971 30.9372 18.1082 30.7377 18.1082 30.5173V25.185C18.1082 25.0586 18.1373 24.9392 18.1893 24.8331C18.3509 24.8469 18.5147 24.8538 18.6799 24.8538C18.9894 24.8538 19.2931 24.8296 19.5896 24.7828C19.6582 24.9009 19.6976 25.0383 19.6976 25.185Z" fill="#0974FB"/>
<path d="M19.6976 32.8191C19.6976 32.3783 19.3418 32.0209 18.9029 32.0209C18.464 32.0209 18.1082 32.3783 18.1082 32.8191V37.2019C18.1082 37.6427 18.464 38.0001 18.9029 38.0001C19.3418 38.0001 19.6976 37.6427 19.6976 37.2019V32.8191Z" fill="#0974FB"/>
<path d="M29.4097 24.9637C29.2625 25.2198 28.9954 25.363 28.7206 25.363C28.5859 25.363 28.4492 25.3285 28.3242 25.256L23.7265 22.5899C23.6177 22.5268 23.5293 22.4418 23.4641 22.3436C23.7303 21.96 23.9519 21.5431 24.1215 21.1002C24.2573 21.0997 24.3951 21.134 24.5212 21.2072L29.1189 23.8734C29.4989 24.0938 29.6292 24.5821 29.4097 24.9637Z" fill="#0974FB"/>
<path d="M31.1037 25.0243C30.7236 24.8039 30.2375 24.9347 30.0181 25.3165C29.7986 25.6983 29.9289 26.1865 30.309 26.4069L34.0879 28.5983C34.468 28.8187 34.954 28.6879 35.1735 28.3061C35.3929 27.9244 35.2627 27.4362 34.8826 27.2157L31.1037 25.0243Z" fill="#0974FB"/>
<path d="M29.2935 13.0471C29.2935 13.3229 29.1509 13.5912 28.896 13.7389L24.2985 16.4051C24.1899 16.4681 24.0727 16.5023 23.9557 16.5102C23.7551 16.082 23.5043 15.6821 23.2107 15.3183C23.2782 15.1991 23.377 15.096 23.5038 15.0224L28.1012 12.3564C28.4814 12.1359 28.9674 12.2667 29.1868 12.6486C29.2591 12.7743 29.2935 12.9116 29.2935 13.0471Z" fill="#0974FB"/>
<path d="M33.8651 9.01387L30.0862 11.2053C29.7061 11.4257 29.5759 11.9139 29.7953 12.2957C30.0148 12.6774 30.5008 12.8083 30.8809 12.5878L34.6598 10.3964C35.0399 10.176 35.1701 9.68783 34.9507 9.30604C34.7312 8.92425 34.2452 8.79344 33.8651 9.01387Z" fill="#0974FB"/>
</svg>
